<?xml version="1.0" encoding="UTF-8" standalone="no"?>
<!-- Created with Inkscape (http://www.inkscape.org/) -->

<svg
   width="1200"
   height="630"
   viewBox="0 0 317.5 166.6875"
   version="1.1"
   id="svg5"
   inkscape:version="1.1 (c4e8f9ed74, 2021-05-24)"
   sodipodi:docname="zjuyksvg.svg"
   xmlns:inkscape="http://www.inkscape.org/namespaces/inkscape"
   xmlns:sodipodi="http://sodipodi.sourceforge.net/DTD/sodipodi-0.dtd"
   xmlns="http://www.w3.org/2000/svg"
   xmlns:svg="http://www.w3.org/2000/svg">
  <sodipodi:namedview
     id="namedview7"
     pagecolor="#505050"
     bordercolor="#ffffff"
     borderopacity="1"
     inkscape:pageshadow="0"
     inkscape:pageopacity="0"
     inkscape:pagecheckerboard="1"
     inkscape:document-units="px"
     showgrid="false"
     inkscape:lockguides="true"
     inkscape:snap-object-midpoints="true"
     inkscape:snap-center="true"
     inkscape:snap-text-baseline="true"
     inkscape:snap-page="true"
     inkscape:object-paths="true"
     inkscape:snap-intersection-paths="true"
     inkscape:snap-midpoints="true"
     inkscape:snap-bbox="true"
     inkscape:snap-smooth-nodes="true"
     inkscape:snap-bbox-midpoints="true"
     inkscape:snap-bbox-edge-midpoints="true"
     inkscape:bbox-nodes="true"
     inkscape:bbox-paths="true"
     inkscape:snap-global="false"
     inkscape:zoom="0.79365079"
     inkscape:cx="648.9"
     inkscape:cy="325.08"
     inkscape:window-width="1860"
     inkscape:window-height="1048"
     inkscape:window-x="0"
     inkscape:window-y="0"
     inkscape:window-maximized="1"
     inkscape:current-layer="layer1" />
  <defs
     id="defs2">
    <linearGradient
       id="lg"
       y1="9.90843"
       x2="25.431995"
       x1="34.76569"
       y2="28.426884"
       gradientTransform="scale(0.9319351,1.0730361)"
       gradientUnits="userSpaceOnUse">
      <stop
         stop-color="#fff"
         stop-opacity="0"
         offset="0"
         id="stop946" />
      <stop
         stop-color="#fff"
         stop-opacity=".27451"
         offset="1"
         id="stop948" />
    </linearGradient>
  </defs>
  <g
     inkscape:label="图层 1"
     inkscape:groupmode="layer"
     id="layer1">
    <g
       id="g14631">
      <rect
         style="fill:#2e3440;fill-opacity:1;fill-rule:evenodd;stroke-width:1.05833;stroke-linejoin:round"
         id="rect846"
         width="317.5"
         height="166.6875"
         x="0"
         y="0" />
      <text
         xml:space="preserve"
         style="font-style:normal;font-weight:normal;font-size:20.3992px;line-height:1.25;font-family:sans-serif;fill:#d7e4f1;fill-opacity:1;stroke:none;stroke-width:0.50998"
         x="124.8058"
         y="103.18974"
         id="text2248"><tspan
           sodipodi:role="line"
           id="tspan2246"
           style="font-style:normal;font-variant:normal;font-weight:100;font-stretch:normal;font-family:'Noto Sans';-inkscape-font-specification:'Noto Sans Thin';fill:#d7e4f1;fill-opacity:1;stroke-width:0.50998"
           x="124.8058"
           y="103.18974">Dotfiles</tspan></text>
      <text
         xml:space="preserve"
         style="font-style:normal;font-weight:normal;font-size:9.08842px;line-height:1.25;font-family:sans-serif;fill:#d7e4f1;fill-opacity:1;stroke:none;stroke-width:0.227212"
         x="102.14294"
         y="119.75943"
         id="text2248-3"><tspan
           sodipodi:role="line"
           id="tspan2246-6"
           style="font-style:normal;font-variant:normal;font-weight:100;font-stretch:normal;font-family:'Noto Sans';-inkscape-font-specification:'Noto Sans Thin';fill:#d7e4f1;fill-opacity:1;stroke-width:0.227212"
           x="102.14294"
           y="119.75943">KDE / I3WM / Fish / Firefox ...</tspan></text>
      <text
         xml:space="preserve"
         style="font-style:normal;font-weight:normal;font-size:6.2681px;line-height:1.25;font-family:sans-serif;fill:#d7e4f1;fill-opacity:1;stroke:none;stroke-width:0.156704"
         x="134.42043"
         y="144.5118"
         id="text2248-3-7"><tspan
           sodipodi:role="line"
           id="tspan2246-6-5"
           style="font-style:normal;font-variant:normal;font-weight:100;font-stretch:normal;font-family:'Noto Sans';-inkscape-font-specification:'Noto Sans Thin';fill:#d7e4f1;fill-opacity:1;stroke-width:0.156704"
           x="134.42043"
           y="144.5118">CopyRight @zjuyk</tspan></text>
      <g
         id="g14616">
        <g
           id="g968"
           transform="matrix(0.67808394,0,0,0.67808394,136.87976,30.317895)">
          <path
             d="m 32.253,0.20991 c -2.849,6.9843 -4.579,11.559 -7.75,18.336 1.944,2.061 4.334,4.453 8.211,7.164 -4.168,-1.715 -7.009,-3.432 -9.133,-5.219 -4.059,8.47 -10.423,20.531 -23.328,43.719 10.14,-5.854 18.002,-9.466 25.328,-10.844 -0.314,-1.351 -0.481,-2.819 -0.469,-4.344 l 0.008,-0.32 c 0.161,-6.498 3.542,-11.495 7.547,-11.156 4.004,0.339 7.122,5.884 6.961,12.383 -0.031,1.224 -0.173,2.4 -0.414,3.492 7.247,1.418 15.034,5.013 25.039,10.789 -1.973,-3.632 -3.74,-6.905 -5.422,-10.024 -2.649,-2.053 -5.411,-4.724 -11.047,-7.617 3.874,1.007 6.65,2.171 8.812,3.469 -17.098,-31.835 -18.48,-36.068 -24.343,-49.828 v -9e-5 z"
             fill="#1793d1"
             id="path953" />
          <path
             id="path2522"
             fill-opacity="0.16568"
             fill="#ffffff"
             d="M 50.266,38.249 C 36.394,19.422 33.179,4.247 32.364,0.624 c 7.4,17.067 7.349,17.277 17.902,37.625 z" />
          <path
             d="m 32.378,0.45992 c -0.36,0.88448 -0.7,1.7468 -1.032,2.5625 -0.364,0.8946 -0.718,1.7565 -1.062,2.5938 -0.344,0.8373 -0.693,1.6309 -1.031,2.4375 -0.339,0.8065 -0.654,1.6039 -1,2.4063 -0.346,0.802 -0.726,1.613 -1.094,2.437 -0.368,0.825 -0.752,1.658 -1.156,2.532 -0.404,0.873 -0.828,1.801 -1.282,2.75 -0.061,0.128 -0.124,0.276 -0.187,0.406 1.939,2.054 4.33,4.427 8.187,7.125 -4.167,-1.715 -7,-3.432 -9.125,-5.219 -0.11,0.226 -0.198,0.425 -0.312,0.656 -0.42,0.871 -0.871,1.733 -1.344,2.688 -0.113,0.224 -0.196,0.427 -0.312,0.656 -0.501,1.004 -1.026,2.043 -1.594,3.156 -0.113,0.22 -0.228,0.402 -0.344,0.625 -0.343,0.667 -1.44,2.77 -2.562,4.907 -0.655,1.248 -1.169,2.27 -1.907,3.656 -0.209,0.398 -0.639,1.195 -0.75,1.406 8.125,-4.573 16.891,-11.216 32.813,-5.531 -0.797,-1.51 -1.562,-2.919 -2.25,-4.25 -0.688,-1.332 -1.312,-2.571 -1.906,-3.75 -0.594,-1.179 -1.143,-2.291 -1.657,-3.344 -0.513,-1.053 -0.989,-2.047 -1.437,-3 -0.448,-0.953 -0.885,-1.87 -1.281,-2.75 -0.397,-0.879 -0.766,-1.73 -1.125,-2.562 -0.359,-0.833 -0.695,-1.658 -1.032,-2.469 -0.336,-0.8115 -0.672,-1.5896 -1,-2.4063 -0.142,-0.3554 -0.263,-0.7338 -0.406,-1.0938 -0.888,-2.0849 -1.759,-4.1515 -2.812,-6.625 v 2e-5 z"
             fill="url(#lg)"
             id="path956"
             style="fill:url(#lg)" />
        </g>
        <path
           id="path13891"
           style="fill:none;fill-opacity:1;fill-rule:evenodd;stroke:#eceff4;stroke-width:0.999999;stroke-linejoin:round;stroke-miterlimit:4;stroke-dasharray:none;stroke-opacity:0.480435"
           d="m 695.32422,274.62109 c 24.96845,-24.96805 38.99576,-58.83213 38.99609,-94.14257 C 734.32048,106.94799 674.71217,47.339678 601.18164,47.339844 527.65111,47.339678 468.0428,106.94799 468.04297,180.47852 c 3.3e-4,35.31044 14.02764,69.17452 38.99609,94.14257"
           transform="scale(0.26458333)"
           sodipodi:nodetypes="ccccc" />
      </g>
    </g>
    <path
       sodipodi:type="star"
       style="fill:none;fill-opacity:1;fill-rule:evenodd;stroke:#eceff4;stroke-width:1.32075;stroke-linejoin:round;stroke-miterlimit:4;stroke-dasharray:none;stroke-opacity:0.480435"
       id="path14839"
       inkscape:flatsided="false"
       sodipodi:sides="5"
       sodipodi:cx="563.08327"
       sodipodi:cy="81.967818"
       sodipodi:r1="32.431236"
       sodipodi:r2="16.215616"
       sodipodi:arg1="0.92180077"
       sodipodi:arg2="1.5501193"
       inkscape:rounded="0"
       inkscape:randomized="0"
       d="m 582.68427,107.8055 -19.26573,-9.625532 -18.85132,10.413792 3.20098,-21.297254 -15.72948,-14.710633 21.24405,-3.536895 9.12997,-19.505464 9.92856,19.111334 21.37211,2.655594 -15.10786,15.348348 z"
       transform="matrix(0.20032875,0,0,0.20032875,45.989741,6.8625994)"
       inkscape:transform-center-x="0.041508721"
       inkscape:transform-center-y="-0.58078919" />
  </g>
</svg>
